<svg width="1920" height="886" viewBox="0 0 1920 886" fill="none" xmlns="http://www.w3.org/2000/svg">
<g opacity="1">
<path d="M1988.56 331.916C1845.84 698.598 1362.76 765.259 1043.02 387.176C720.251 5.48091 318.842 -116.51 -30.9474 123.181" stroke="#104a7c" stroke-width="0.2" stroke-miterlimit="10"/>
<path d="M1988.78 332.486C1903.76 555.064 1691.44 670.623 1464.52 640.338C1318.13 621.275 1168.93 543.132 1043.32 400.148C899.536 236.48 742.863 119.69 583.238 62.1205C374.599 -12.4221 162.337 12.042 -30.9474 148.605" stroke="#104a7c" stroke-width="0.2" stroke-miterlimit="10"/>
<path d="M1988.99 333.066C1906.08 554.374 1695.5 672.764 1467.79 645.579C1319.42 627.866 1170.23 551.843 1043.62 413.14C896.868 252.373 739.607 135.453 580.171 79.9335C369.737 6.66112 158.504 35.9861 -30.9474 174.029" stroke="#104a7c" stroke-width="0.2" stroke-miterlimit="10"/>
<path d="M1989.2 333.636C1908.39 553.664 1699.5 675.284 1471.06 650.82C1320.66 634.717 1171.46 560.575 1043.9 426.122C894.138 268.255 736.236 151.476 577.094 97.7565C364.738 26.0644 154.66 59.9301 -30.9474 199.464" stroke="#104a7c" stroke-width="0.2" stroke-miterlimit="10"/>
<path d="M1989.41 334.217C1910.71 552.974 1703.48 677.845 1474.34 656.061C1321.9 641.569 1172.64 569.316 1044.21 439.104C891.365 284.148 732.864 167.508 574.038 115.57C359.717 45.4877 150.827 83.8742 -30.9474 224.888" stroke="#104a7c" stroke-width="0.2" stroke-miterlimit="10"/>
<path d="M1989.63 334.787C1913.03 552.273 1707.47 680.425 1477.62 661.302C1323.14 648.45 1173.76 578.088 1044.51 452.087C977.568 386.825 910.049 328.126 842.267 278.397C752.115 212.266 661.459 162.027 570.982 133.383C354.697 64.931 146.983 107.818 -30.9474 250.312" stroke="#104a7c" stroke-width="0.2" stroke-miterlimit="10"/>
<path d="M1989.84 335.357C1915.34 551.563 1711.44 683.036 1480.9 666.533C1324.36 655.331 1174.82 586.869 1044.8 465.069C885.62 315.953 726.09 199.634 567.915 151.206C349.656 84.3943 143.149 131.762 -30.9474 275.737" stroke="#104a7c" stroke-width="0.2" stroke-miterlimit="10"/>
<path d="M1990.05 335.937C1917.66 550.873 1715.4 685.676 1484.17 671.774C1325.58 662.242 1175.82 595.691 1045.09 478.051C882.648 331.886 722.677 215.717 564.838 169.029C344.605 103.878 139.305 155.706 -30.9474 301.171" stroke="#104a7c" stroke-width="0.2" stroke-miterlimit="10"/>
<path d="M1990.26 336.507C1919.97 550.173 1719.36 688.347 1487.44 677.015C1326.8 669.163 1176.77 604.542 1045.38 491.033C879.624 347.829 719.264 231.829 561.771 186.842C339.542 123.381 135.472 179.65 -30.9474 326.595" stroke="#104a7c" stroke-width="0.2" stroke-miterlimit="10"/>
<path d="M1990.48 337.087C1922.3 549.473 1723.32 691.047 1490.73 682.256C1328.03 676.105 1177.66 613.424 1045.69 504.025C876.557 363.822 715.851 247.962 558.715 204.675C334.47 142.904 131.628 203.594 -30.9474 352.02" stroke="#104a7c" stroke-width="0.2" stroke-miterlimit="10"/>
<path d="M1990.69 337.657C1924.61 548.773 1727.26 693.767 1494 687.496C1329.23 683.066 1178.49 622.345 1045.97 517.008C873.396 379.824 712.416 264.095 555.638 222.488C329.397 162.448 127.795 227.539 -30.9474 377.444" stroke="#104a7c" stroke-width="0.2" stroke-miterlimit="10"/>
<path d="M1990.9 338.237C1926.93 548.083 1731.21 696.518 1497.27 692.737C1330.45 690.037 1179.26 631.307 1046.26 529.99C870.193 395.877 708.982 280.257 552.571 240.311C324.304 182.011 123.962 251.483 -30.9474 402.868" stroke="#104a7c" stroke-width="0.2" stroke-miterlimit="10"/>
<path d="M1991.11 338.807C1929.25 547.373 1735.15 699.288 1500.55 697.978C1331.65 697.038 1180 640.298 1046.57 542.982C866.947 411.97 705.548 296.44 549.515 258.134C319.21 201.594 120.118 275.427 -30.9474 428.303" stroke="#104a7c" stroke-width="0.2" stroke-miterlimit="10"/>
<path d="M1991.33 339.387C1931.58 546.683 1739.11 702.089 1503.83 703.219C1332.86 704.039 1180.69 649.34 1046.86 555.964C863.629 428.112 702.103 312.623 546.448 275.957C314.106 221.207 116.284 299.371 -30.9474 453.727" stroke="#104a7c" stroke-width="0.2" stroke-miterlimit="10"/>
<path d="M1991.54 339.958C1933.89 545.982 1743.05 704.899 1507.11 708.45C1334.07 711.06 1181.33 658.422 1047.16 568.936C860.257 444.295 698.648 328.826 543.382 293.76C308.991 240.841 112.441 323.305 -30.9474 479.151" stroke="#104a7c" stroke-width="0.2" stroke-miterlimit="10"/>
<path d="M1991.75 340.538C1936.2 545.282 1747 707.74 1510.38 713.701C1335.29 718.112 1181.94 667.563 1047.45 581.939C856.834 460.578 695.193 345.068 540.315 311.603C303.866 260.494 108.607 347.249 -30.9474 504.575" stroke="#104a7c" stroke-width="0.2" stroke-miterlimit="10"/>
<path d="M1991.96 341.108C1938.52 544.582 1750.94 710.6 1513.66 718.932C1336.49 725.153 1182.51 676.735 1047.74 594.911C853.357 476.891 691.737 361.291 537.248 329.406C298.741 280.177 104.763 371.193 -30.9474 530.01" stroke="#104a7c" stroke-width="0.2" stroke-miterlimit="10"/>
<path d="M1992.18 341.678C1940.83 543.882 1754.89 713.471 1516.92 724.173C1337.7 732.224 1183.04 685.966 1048.03 607.893C849.829 493.284 688.261 377.544 534.171 347.229C293.616 299.881 100.93 395.137 -30.9474 555.434" stroke="#104a7c" stroke-width="0.2" stroke-miterlimit="10"/>
<path d="M1992.4 342.258C1943.16 543.182 1758.85 716.381 1520.21 729.414C1338.92 739.315 1183.56 695.248 1048.33 620.885C846.268 509.756 684.806 393.827 531.115 365.052C288.48 319.614 97.0862 419.081 -30.9474 580.858" stroke="#104a7c" stroke-width="0.2" stroke-miterlimit="10"/>
<path d="M1992.61 342.828C1945.47 542.482 1762.8 719.292 1523.49 734.644C1340.14 746.406 1184.04 704.569 1048.63 633.857C842.666 526.299 681.34 410.099 528.048 382.855C283.345 339.377 93.2529 443.025 -30.9474 606.283" stroke="#104a7c" stroke-width="0.2" stroke-miterlimit="10"/>
<path d="M1992.82 343.408C1947.79 541.792 1766.76 722.232 1526.75 739.895C1341.35 753.538 1184.5 713.961 1048.92 646.85C839.022 542.952 677.864 426.412 524.982 400.688C278.199 359.161 89.4091 466.969 -30.9474 631.707" stroke="#104a7c" stroke-width="0.2" stroke-miterlimit="10"/>
<path d="M1993.03 343.978C1950.1 541.092 1770.72 725.183 1530.03 745.126C1342.58 760.659 1184.95 723.392 1049.21 659.832C835.356 559.685 674.398 442.725 521.915 418.501C273.063 378.974 85.5757 490.913 -30.9474 657.141" stroke="#104a7c" stroke-width="0.2" stroke-miterlimit="10"/>
<path d="M1993.25 344.558C1952.43 540.392 1774.69 728.153 1533.32 750.377C1343.81 767.82 1185.4 732.884 1049.52 672.824C831.67 576.528 670.932 459.068 518.859 436.334C267.917 398.818 81.7319 514.857 -30.9474 682.566" stroke="#104a7c" stroke-width="0.2" stroke-miterlimit="10"/>
<path d="M1993.46 345.128C1954.74 539.691 1778.66 731.134 1536.58 755.608C1345.03 774.971 1185.82 742.416 1049.8 685.796C827.942 593.44 667.456 475.401 515.782 454.137C262.771 418.681 77.8985 538.801 -30.9474 707.99" stroke="#104a7c" stroke-width="0.2" stroke-miterlimit="10"/>
<path d="M1993.67 345.709C1957.06 539.001 1782.64 734.144 1539.86 760.849C1346.27 782.152 1186.25 752.007 1050.1 698.788C824.203 610.483 663.98 491.763 512.715 471.97C257.625 438.574 74.0652 562.745 -30.9474 733.414" stroke="#104a7c" stroke-width="0.2" stroke-miterlimit="10"/>
<path d="M1993.88 346.279C1959.38 538.291 1786.62 737.155 1543.14 766.09C1347.51 789.344 1186.69 761.649 1050.39 711.771C820.464 627.626 660.514 508.136 509.648 489.783C252.478 458.498 70.2213 586.689 -30.9474 758.839" stroke="#104a7c" stroke-width="0.2" stroke-miterlimit="10"/>
<path d="M1994.1 346.859C1961.7 537.601 1790.63 740.185 1546.43 771.331C1348.76 796.545 1187.14 771.341 1050.7 724.753C816.725 644.869 657.059 524.519 506.592 507.606C247.332 478.451 66.388 610.633 -30.9474 784.273" stroke="#104a7c" stroke-width="0.2" stroke-miterlimit="10"/>
<path d="M1994.31 347.429C1964.02 536.901 1794.62 743.216 1549.69 776.571C1350 803.756 1187.58 781.082 1050.98 737.735C812.976 662.222 653.583 540.922 503.526 525.419C242.186 498.424 62.5441 634.577 -30.9474 809.697" stroke="#104a7c" stroke-width="0.2" stroke-miterlimit="10"/>
<path d="M1994.52 347.999C1966.33 536.191 1798.62 746.266 1552.97 781.802C1351.26 810.977 1188.06 790.854 1051.28 750.717C809.248 679.685 650.127 557.334 500.469 543.242C237.05 518.438 58.7108 658.511 -30.9474 835.121" stroke="#104a7c" stroke-width="0.2" stroke-miterlimit="10"/>
<path d="M1994.73 348.579C1968.65 535.501 1802.66 749.597 1556.25 787.043C1352.55 818.439 1188.55 800.686 1051.58 763.699C805.53 697.258 646.651 573.967 497.403 561.055C231.873 538.851 54.867 682.456 -30.9474 860.546" stroke="#104a7c" stroke-width="0.2" stroke-miterlimit="10"/>
<path d="M1994.95 349.149C1970.97 534.801 1806.64 752.417 1559.52 792.284C978.807 885.98 724.893 596.401 494.326 578.878C226.779 558.545 51.0336 706.4 -30.9474 885.98" stroke="#104a7c" stroke-width="0.2" stroke-miterlimit="10"/>
</g>
</svg>
